<svg width="25" height="24" viewBox="0 0 25 24" fill="none" xmlns="http://www.w3.org/2000/svg">
<g opacity="0.7">
<path d="M2.38477 6C2.38477 4.11438 2.38477 3.17157 2.97056 2.58579C3.55634 2 4.49915 2 6.38477 2C8.27039 2 9.2132 2 9.79898 2.58579C10.3848 3.17157 10.3848 4.11438 10.3848 6V8C10.3848 9.88562 10.3848 10.8284 9.79898 11.4142C9.2132 12 8.27039 12 6.38477 12C4.49915 12 3.55634 12 2.97056 11.4142C2.38477 10.8284 2.38477 9.88562 2.38477 8V6Z" stroke="#141B34" stroke-width="1.5"/>
<path d="M2.38477 19C2.38477 18.0681 2.38477 17.6022 2.53701 17.2346C2.74 16.7446 3.12935 16.3552 3.6194 16.1522C3.98695 16 4.45289 16 5.38477 16H7.38477C8.31665 16 8.78259 16 9.15014 16.1522C9.64019 16.3552 10.0295 16.7446 10.2325 17.2346C10.3848 17.6022 10.3848 18.0681 10.3848 19C10.3848 19.9319 10.3848 20.3978 10.2325 20.7654C10.0295 21.2554 9.64019 21.6448 9.15014 21.8478C8.78259 22 8.31665 22 7.38477 22H5.38477C4.45289 22 3.98695 22 3.6194 21.8478C3.12935 21.6448 2.74 21.2554 2.53701 20.7654C2.38477 20.3978 2.38477 19.9319 2.38477 19Z" stroke="#141B34" stroke-width="1.5"/>
<path d="M14.3848 16C14.3848 14.1144 14.3848 13.1716 14.9706 12.5858C15.5564 12 16.4992 12 18.3848 12C20.2704 12 21.2132 12 21.799 12.5858C22.3848 13.1716 22.3848 14.1144 22.3848 16V18C22.3848 19.8856 22.3848 20.8284 21.799 21.4142C21.2132 22 20.2704 22 18.3848 22C16.4992 22 15.5564 22 14.9706 21.4142C14.3848 20.8284 14.3848 19.8856 14.3848 18V16Z" stroke="#141B34" stroke-width="1.5"/>
<path d="M14.3848 5C14.3848 4.06812 14.3848 3.60218 14.537 3.23463C14.74 2.74458 15.1294 2.35523 15.6194 2.15224C15.987 2 16.4529 2 17.3848 2H19.3848C20.3167 2 20.7826 2 21.1502 2.15224C21.6402 2.35523 22.0296 2.74458 22.2326 3.23463C22.3848 3.60218 22.3848 4.06812 22.3848 5C22.3848 5.93188 22.3848 6.39782 22.2326 6.76537C22.0296 7.25542 21.6402 7.64477 21.1502 7.84776C20.7826 8 20.3167 8 19.3848 8H17.3848C16.4529 8 15.987 8 15.6194 7.84776C15.1294 7.64477 14.74 7.25542 14.537 6.76537C14.3848 6.39782 14.3848 5.93188 14.3848 5Z" stroke="#141B34" stroke-width="1.5"/>
</g>
</svg>
