<svg width="60" height="61" viewBox="0 0 60 61" fill="none" xmlns="http://www.w3.org/2000/svg">
<rect y="0.5" width="60" height="60" rx="30" fill="#FFCA3C"/>
<g opacity="0.95">
<path d="M25 35.5H34.079C39.6885 35.5 40.5416 31.976 41.5763 26.8364C41.8748 25.3539 42.024 24.6127 41.6651 24.1188C41.3062 23.625 40.6184 23.625 39.2426 23.625H22.5" fill="black"/>
<path d="M25 35.5H34.079C39.6885 35.5 40.5416 31.976 41.5762 26.8364C41.8747 25.3539 42.024 24.6127 41.6651 24.1188C41.3062 23.625 40.6184 23.625 39.2426 23.625H22.5" stroke="black" stroke-width="1.875" stroke-linecap="round"/>
<path d="M25 35.5L21.7234 19.8937C21.4452 18.7807 20.4452 18 19.2981 18H18.125" stroke="black" stroke-width="1.875" stroke-linecap="round"/>
<path d="M26.1 35.5H25.5857C23.8815 35.5 22.5 36.9391 22.5 38.7142C22.5 39.0101 22.7302 39.25 23.0143 39.25H36.875" stroke="black" stroke-width="1.875" stroke-linecap="round" stroke-linejoin="round"/>
<path d="M28.125 43C29.1605 43 30 42.1605 30 41.125C30 40.0895 29.1605 39.25 28.125 39.25C27.0895 39.25 26.25 40.0895 26.25 41.125C26.25 42.1605 27.0895 43 28.125 43Z" stroke="black" stroke-width="1.875"/>
<path d="M36.875 43C37.9105 43 38.75 42.1605 38.75 41.125C38.75 40.0895 37.9105 39.25 36.875 39.25C35.8395 39.25 35 40.0895 35 41.125C35 42.1605 35.8395 43 36.875 43Z" stroke="black" stroke-width="1.875"/>
</g>
</svg>
