<svg width="383" height="320" viewBox="0 0 383 320" fill="none" xmlns="http://www.w3.org/2000/svg">
<path opacity="0.3" d="M1.68359 1.594C32.9087 1.594 62.4258 1.04628 91.9508 12.5282C108.52 18.972 121.333 33.6024 134.171 45.3309C149.926 59.7241 165.625 78.8142 174.077 98.4855C183.473 120.353 187.689 145.794 179.105 168.56C175.48 178.175 169.66 186.88 162.265 194.02C146.959 208.798 128.242 207.271 108.472 203.598C94.8399 201.065 73.0774 198.212 64.4157 185.48C58.6815 177.052 49.9833 162.148 55.1575 151.8C61.636 138.843 72.1726 138.072 86.4437 138.072C95.3252 138.072 106.686 149.592 113.42 154.513C122.932 161.464 131.796 169.659 140.397 177.739C171.975 207.403 182.357 253.55 208.556 287.48C221.819 304.657 249.882 313.983 270.649 315.893C290.468 317.715 315.47 320.358 332.823 308.79C353.162 295.23 368.57 279.847 377.118 256.832C379.585 250.19 382.608 234.769 379.513 228.579" stroke="black" stroke-width="3" stroke-linecap="round" stroke-linejoin="round" stroke-dasharray="16 16"/>
</svg>
