<svg width="168" height="168" viewBox="0 0 168 168" fill="none" xmlns="http://www.w3.org/2000/svg">
<path opacity="0.2" d="M123.245 1.91919C127.741 2.20018 112.775 9.48896 111.617 10.0902C108.181 11.8741 104.096 12.373 100.853 14.4114C95.9151 17.5154 91.4817 21.1571 86.7505 24.5465C83.9617 26.5445 81.5716 28.3734 79.2474 30.9105C73.8705 36.7799 67.9014 41.0796 61.1377 45.3668C47.7985 53.822 25.8228 66.0307 10.1083 55.3448C2.42407 50.1195 -0.541233 31.4238 4.25509 23.6037C6.33332 20.2153 11.9351 20.0122 15.2938 19.4397C21.1353 18.4439 27.4583 16.4815 32.8142 19.9896C43.0299 26.6809 47.7162 35.3954 51.2775 46.7024C54.5995 57.2499 57.1093 67.9622 61.4912 78.1686C69.4562 96.7206 80.3523 113.731 92.1324 130.062C102.352 144.23 112.557 156.733 129.059 163.296C137.449 166.632 146.304 165.967 155.143 165.967C162.785 165.967 165.579 163.565 164.218 155.4C163.703 152.309 161.391 152.234 165.671 153.947" stroke="black" stroke-width="3" stroke-linecap="round" stroke-linejoin="round" stroke-dasharray="12 12"/>
</svg>
